# xmcd
#
# Track frame offsets:
#	150
#	11614
#	22161
#	34806
#	47364
#	59302
#	72361
#	85553
#	97608
#	109991
#	122244
#	134967
#	147710
#	160679
#	171037
#	184319
#	196688
#	209439
#	221864
#	234506
#	247439
#	259338
#	271750
#	284387
#	297153
#	310641
#
# Disc length: 4297 seconds
#
# Revision: 1
# Processed by: cddbd v1.5.1PL0 Copyright (c) Steve Scherf et al.
# Submitted via: audiograbber 1.82.01
#
DISCID=8e10c71a
DTITLE=Acuff Roy - Beautiful Brown Eyes
DYEAR=2004
DGENRE=Country
TTITLE0=Answer To Sparkling Eyes
TTITLE1=Fly Birdie Fly
TTITLE2=Ida Red
TTITLE3=Beautiful Brown Eyes
TTITLE4=Mother's Prayers Guide Me
TTITLE5=Living On The Mountain Baby Mine
TTITLE6=A Vagabond's Prayer
TTITLE7=Old Age Pension Cheque
TTITLE8=Eyes Watching You
TTITLE9=I'm Building A Home
TTITLE10=Walkin' In My Sleep
TTITLE11=Drifting Too Far From Shore
TTITLE12=Come Back Little Pal
TTITLE13=Will The Circle Be Unbroken
TTITLE14=When I Lay My Burden Down
TTITLE15=The Streamlined Cannonball
TTITLE16=Weary River
TTITLE17=The Broken Heart
TTITLE18=The Precious Jewel
TTITLE19=Mule Skinner Blues
TTITLE20=Just To Ease My Worried Mind
TTITLE21=Be Honest With Me
TTITLE22=Worried Mind
TTITLE23=It Won't Be Long (Til I'm Leaving)
TTITLE24=I Know You're Saying Goodbye
TTITLE25=Brother Take Warning
EXTD=Corrected year
EXTT0=
EXTT1=
EXTT2=
EXTT3=
EXTT4=
EXTT5=
EXTT6=
EXTT7=
EXTT8=
EXTT9=
EXTT10=
EXTT11=
EXTT12=
EXTT13=
EXTT14=
EXTT15=
EXTT16=
EXTT17=
EXTT18=
EXTT19=
EXTT20=
EXTT21=
EXTT22=
EXTT23=
EXTT24=
EXTT25=
PLAYORDER=
